<?xml version="1.0" encoding="UTF-8"?>
<svg width="60px" height="60px" viewBox="0 0 60 60" version="1.1" xmlns="http://www.w3.org/2000/svg" xmlns:xlink="http://www.w3.org/1999/xlink">
    <!-- Generator: Sketch 56.3 (81716) - https://sketch.com -->
    <title>Group 21</title>
    <desc>Created with Sketch.</desc>
    <g id="iPhone" stroke="none" stroke-width="1" fill="none" fill-rule="evenodd">
        <g id="Transaction-Detail-Copy" transform="translate(-158.000000, -243.000000)">
            <g id="Group-2" transform="translate(70.000000, 235.000000)">
                <g id="Group-21" transform="translate(93.000000, 13.000000)">
                    <path d="M15.7552483,2.68119518 C17.6818518,-0.467554457 21.1440447,-2.5 25,-2.5 C28.8559553,-2.5 32.3181482,-0.467554457 34.2447517,2.68119518 C37.8335682,1.81700731 41.7188643,2.82799134 44.4454365,5.55456352 C47.1720087,8.28113569 48.1829927,12.1664318 47.3188048,15.7552483 C50.4675545,17.6818518 52.5,21.1440447 52.5,25 C52.5,28.8559553 50.4675545,32.3181482 47.3188048,34.2447517 C48.1829927,37.8335682 47.1720087,41.7188643 44.4454365,44.4454365 C41.7188643,47.1720087 37.8335682,48.1829927 34.2447517,47.3188048 C32.3181482,50.4675545 28.8559553,52.5 25,52.5 C21.1440447,52.5 17.6818518,50.4675545 15.7552483,47.3188048 C12.1664318,48.1829927 8.28113569,47.1720087 5.55456352,44.4454365 C2.82799134,41.7188643 1.81700731,37.8335682 2.68119518,34.2447517 C-0.467554457,32.3181482 -2.5,28.8559553 -2.5,25 C-2.5,21.1440447 -0.467554457,17.6818518 2.68119518,15.7552483 C1.81700731,12.1664318 2.82799134,8.28113569 5.55456352,5.55456352 C8.28113569,2.82799134 12.1664318,1.81700731 15.7552483,2.68119518 Z" id="Combined-Shape" stroke="#FFFFFF" stroke-width="5" fill="#20CCA5"></path>
                    <g id="correct" transform="translate(12.119176, 15.277778)" fill="#FFFFFF" fill-rule="nonzero">
                        <path d="M25.0843733,1.35574474 L24.3426166,0.613297646 C23.5283248,-0.204432549 22.1941989,-0.204432549 21.3773167,0.613297646 L8.783859,13.2348983 L4.31518488,8.75858264 C3.50089315,7.94171777 2.16590374,7.94171777 1.35161201,8.75944796 L0.610718797,9.50102973 C-0.203572932,10.3178946 -0.203572932,11.6548186 0.610718797,12.4716834 L7.29775501,19.179667 C8.11291025,19.9956666 9.44703615,19.9956666 10.2621914,19.179667 L25.0843733,4.32639845 C25.8978015,3.50953358 25.8978015,2.17260961 25.0843733,1.35574474 Z" id="Path"></path>
                    </g>
                </g>
            </g>
        </g>
    </g>
</svg>